<svg id="Layer_1" data-name="Layer 1" xmlns="http://www.w3.org/2000/svg" viewBox="0 0 223.85 186.27"><defs><style>.cls-1{fill:#fff;}</style></defs><path class="cls-1" d="M281.47,200.55c-6.92,0-13.84,0-20.76,0a22.45,22.45,0,0,1-16.15-6.66q-17-16.84-33.9-33.78l-17.53-17.5c-.86-.85-1.08-.85-1.95,0L140,193.72a23,23,0,0,1-16.41,7c-14,.22-28,.43-42.08.49-.39,0-.91.21-1.13-.33s.19-.83.52-1.15q45.75-45.84,91.53-91.67a28,28,0,0,1,37.71-1.6c.7.58,1.33,1.24,2,1.88q45.75,45.74,91.48,91.49c.23.23.7.43.55.77s-.63.17-1,.17H281.47Z" transform="translate(-80.33 -15)"/><path class="cls-1" d="M291,91.9c-.1,7.25-7.19,10.13-12.07,8.89a46.59,46.59,0,0,1-10.18-4.39c-2.68-1.43-5.29-3-7.9-4.55a5.78,5.78,0,0,1-1-.68,1.43,1.43,0,0,1-.44-1.87,35.13,35.13,0,0,1,8.5-9.8,11.82,11.82,0,0,1,11.14-1.86,16.33,16.33,0,0,1,10.87,9.09A12.31,12.31,0,0,1,291,91.9Z" transform="translate(-80.33 -15)"/><path class="cls-1" d="M265.12,72.23A124.11,124.11,0,0,1,247.6,69.7a1.76,1.76,0,0,1-1.48-2.28,38.4,38.4,0,0,1,4.06-10.88,12,12,0,0,1,10.07-6.26,16.43,16.43,0,0,1,13.32,4.62,10.21,10.21,0,0,1,3.33,9.27A9.8,9.8,0,0,1,268,72.11,17.63,17.63,0,0,1,265.12,72.23Z" transform="translate(-80.33 -15)"/><path class="cls-1" d="M110.13,157.11c-6.15-.37-11.07-2.9-14.33-8.26a11.1,11.1,0,0,1-1.66-7.44,9.35,9.35,0,0,1,8.11-8.1,13.2,13.2,0,0,1,6.87,1.07,114.89,114.89,0,0,1,15.67,8,1.64,1.64,0,0,1,.62,2.62,33.07,33.07,0,0,1-8.32,9.65A10.94,10.94,0,0,1,110.13,157.11Z" transform="translate(-80.33 -15)"/><path class="cls-1" d="M136.18,63.7c0,2.25,0,4.49,0,6.73,0,1.59-.64,2.18-2.18,2.15a40.65,40.65,0,0,1-10.1-1.5c-6.1-1.73-9.09-5.94-9.71-12-.52-5.13.76-9.74,4.64-13.32,3-2.78,6.57-3.65,10.43-1.94a9.69,9.69,0,0,1,5.63,6.77C136,54.76,136,59,136.16,63.3v.4Z" transform="translate(-80.33 -15)"/><path class="cls-1" d="M99.83,101.27a10.86,10.86,0,0,1,7.26,2.76,73,73,0,0,1,8.42,8.44c1.47,1.66,2.9,3.35,4.32,5,1,1.18.89,2-.32,3a36.7,36.7,0,0,1-9.83,5.78A12,12,0,0,1,98.16,125a16.7,16.7,0,0,1-7.55-11,10.93,10.93,0,0,1,2.18-9.57A8.83,8.83,0,0,1,99.83,101.27Z" transform="translate(-80.33 -15)"/><path class="cls-1" d="M152.18,24c3.4-.09,6.95,2.49,8.35,6.26.95,2.56.64,5.1.09,7.65a112,112,0,0,1-4.92,15.36c-.93,2.48-1.34,2.66-3.78,1.66a32.79,32.79,0,0,1-10-6.09A11.5,11.5,0,0,1,138.21,39a16.88,16.88,0,0,1,5.49-11.73A12.13,12.13,0,0,1,152.18,24Z" transform="translate(-80.33 -15)"/><path class="cls-1" d="M225.55,46.08a31.06,31.06,0,0,1,.84-7.13,10.81,10.81,0,0,1,5.32-7.08c5.46-3.11,11.07-3.63,16.71-.59a9.63,9.63,0,0,1,5.51,8.36c.18,4.24-2.43,7.86-6.66,9.6a62.09,62.09,0,0,1-12.05,3.13c-2.05.39-4.1.71-6.16,1.06a8.69,8.69,0,0,1-1.35.13,1.51,1.51,0,0,1-1.62-1.42A41.12,41.12,0,0,1,225.55,46.08Z" transform="translate(-80.33 -15)"/><path class="cls-1" d="M182.45,15c4.72.07,8.28,2.71,9.4,7a10.85,10.85,0,0,1-1.44,8.52A86,86,0,0,1,182,41.81c-.92,1.11-1.86,2.2-2.81,3.29s-1.81,1.18-2.94.2a35,35,0,0,1-7.5-8.9,11.58,11.58,0,0,1-.65-11,16.64,16.64,0,0,1,11.26-10A11.52,11.52,0,0,1,182.45,15Z" transform="translate(-80.33 -15)"/><path class="cls-1" d="M280.05,107a12.15,12.15,0,0,1,6.75,2.43A16.48,16.48,0,0,1,294,119.86c.82,3.86.28,7.49-2.58,10.43a9.81,9.81,0,0,1-12.64.79,48.54,48.54,0,0,1-8.29-8c-1.85-2.1-3.63-4.27-5.43-6.42a4.94,4.94,0,0,1-.6-.84,1.48,1.48,0,0,1,.29-2,33,33,0,0,1,12.08-6.39,17,17,0,0,1,1.73-.32C279,107,279.48,107,280.05,107Z" transform="translate(-80.33 -15)"/><path class="cls-1" d="M272.57,136.66a16,16,0,0,1,5.44.86,12.63,12.63,0,0,1,6.11,5.45c2.9,4.65,3.76,9.6,1.69,14.83a9.51,9.51,0,0,1-9.63,6.26,10.37,10.37,0,0,1-7.9-4.85,53.66,53.66,0,0,1-4.79-9.92c-1-2.63-2-5.29-2.95-7.94a4.33,4.33,0,0,1-.26-1,1.47,1.47,0,0,1,1.16-1.75A36.88,36.88,0,0,1,272.57,136.66Z" transform="translate(-80.33 -15)"/><path class="cls-1" d="M213.32,17c3.54.15,6.49,1.08,8.76,3.55a9.64,9.64,0,0,1-.63,13.32,48,48,0,0,1-9,6.55c-2.55,1.57-5.15,3-7.77,4.47-1.51.83-2.25.63-3.09-.91a35.19,35.19,0,0,1-3.82-10.56,11.7,11.7,0,0,1,3-10.6A17.1,17.1,0,0,1,213.32,17Z" transform="translate(-80.33 -15)"/><path class="cls-1" d="M111.3,97.33a11.81,11.81,0,0,1-6.93-1.78,16,16,0,0,1-6-8c-1.45-4.19-1.53-8.36.64-12.34,4-7.38,12.47-6.35,16.29-1.34a40.68,40.68,0,0,1,4.8,9.11c1.3,3.1,2.47,6.25,3.61,9.41a3.18,3.18,0,0,1,.27,1.4,1.45,1.45,0,0,1-1,1.33A35.5,35.5,0,0,1,111.3,97.33Z" transform="translate(-80.33 -15)"/></svg>